<?xml version="1.0" encoding="UTF-8" standalone="no"?>
<svg
   xmlns:dc="http://purl.org/dc/elements/1.1/"
   xmlns:cc="http://creativecommons.org/ns#"
   xmlns:rdf="http://www.w3.org/1999/02/22-rdf-syntax-ns#"
   xmlns:svg="http://www.w3.org/2000/svg"
   xmlns="http://www.w3.org/2000/svg"
   id="SVGRoot"
   version="1.1"
   viewBox="0 0 200 64"
   height="64px"
   width="200px">
  <defs
     id="defs10" />
  <metadata
     id="metadata13">
    <rdf:RDF>
      <cc:Work
         rdf:about="">
        <dc:format>image/svg+xml</dc:format>
        <dc:type
           rdf:resource="http://purl.org/dc/dcmitype/StillImage" />
        <dc:title></dc:title>
      </cc:Work>
    </rdf:RDF>
  </metadata>
  <g
     id="layer1">
    <g
       style="fill:#ffffff"
       transform="matrix(0.28459834,0,0,-0.26865672,-43.133393,139.29316)"
       id="g10">
      <g
         style="fill:#ffffff"
         transform="matrix(0.1,0,0,0.1,3.3898309,0)"
         id="g12">
        <path
           id="path14"
           style="fill:#ffffff;fill-opacity:1;fill-rule:nonzero;stroke:none"
           d="m 8489.91,3283.99 c 0,0 80.82,529.79 -215.12,837.74 -258.15,268.61 -488.92,339.84 -958.84,360.85 -436.81,19.53 -639.23,1.41 -928.11,-0.04 -185.31,-0.93 -2268.03,-147.51 -3042.48,0 0,0 479.42,-221.27 1604.22,-212.05 933.8,7.65 1721.46,-3.76 1962.02,-7.85 44.04,-0.75 87.89,0.46 131.82,3.66 145.6,10.59 546.14,24.42 874.88,-106.45 409.8,-163.14 534.74,-599.27 571.61,-875.86" />
        <path
           id="path16"
           style="fill:#ffffff;fill-opacity:1;fill-rule:nonzero;stroke:none"
           d="m 8054.67,3376.18 c 0,-313.31 -253.99,-567.29 -567.3,-567.29 -313.3,0 -567.29,253.98 -567.29,567.29 0,313.31 253.99,567.3 567.29,567.3 313.31,0 567.3,-253.99 567.3,-567.3" />
        <path
           id="path18"
           style="fill:#ffffff;fill-opacity:1;fill-rule:nonzero;stroke:none"
           d="m 3411.57,3376.18 c 0,-313.31 -253.99,-567.29 -567.3,-567.29 -313.3,0 -567.29,253.98 -567.29,567.29 0,313.31 253.99,567.3 567.29,567.3 313.31,0 567.3,-253.99 567.3,-567.3" />
        <path
           id="path20"
           style="fill:#ffffff;fill-opacity:1;fill-rule:nonzero;stroke:none"
           d="m 7383.56,4104.53 c 0,0 -663.82,184.4 -875.86,-654.59 H 3828.67 c 0,0 -181.45,549.71 -612.39,590.06 0,0 8.99,-9 23.14,-25.71 213.31,-132.38 355.43,-368.6 355.43,-638.11 0,-31.23 -2.13,-61.96 -5.84,-92.19 h 3176.83 c 0,0 -71.05,748.14 617.72,820.54" />
        <path
           id="path22"
           style="fill:#ffffff;fill-opacity:1;fill-rule:nonzero;stroke:none"
           d="m 4507.03,4971.18 c 906.44,-42.14 1650.32,-368.79 1650.32,-368.79 0,0 -156.74,156.74 -654.6,350.35 -497.85,193.61 -1063.33,347.27 -1880.8,138.3 -773.03,-197.62 -626.59,-560.48 -1984.93,-495.12 -44.55,2.14 -73.69,-45.77 -51.25,-84.32 57.81,-99.3 116.02,-267.88 -1.36,-443.94 -184.39,-276.59 -9.22,-691.48 -9.22,-691.48 h 518.51 c 0,403.64 318.65,732.74 718.1,749.76 -126.4,21.58 -322.49,10.11 -609.67,-113.6 h -460.99 c 0,0 147.52,193.61 101.42,350.34 0,0 525.52,165.96 1032.6,-9.22 507.08,-175.17 1631.87,-285.8 2369.44,-212.05 0,0 -1770.16,82.98 -2304.9,460.98 0,0 510.29,417.93 1567.33,368.79" />
      </g>
    </g>
  </g>
</svg>
