<?xml version="1.0" encoding="UTF-8" standalone="no"?>
<svg
   xmlns:dc="http://purl.org/dc/elements/1.1/"
   xmlns:cc="http://creativecommons.org/ns#"
   xmlns:rdf="http://www.w3.org/1999/02/22-rdf-syntax-ns#"
   xmlns:svg="http://www.w3.org/2000/svg"
   xmlns="http://www.w3.org/2000/svg"
   xmlns:sodipodi="http://sodipodi.sourceforge.net/DTD/sodipodi-0.dtd"
   xmlns:inkscape="http://www.inkscape.org/namespaces/inkscape"
   id="SVGRoot"
   version="1.1"
   viewBox="0 0 150 65"
   height="65px"
   width="150px"
   sodipodi:docname="logocamposcar.svg"
   inkscape:version="0.92.5 (2060ec1f9f, 2020-04-08)">
  <sodipodi:namedview
     pagecolor="#ffffff"
     bordercolor="#666666"
     borderopacity="1"
     objecttolerance="10"
     gridtolerance="10"
     guidetolerance="10"
     inkscape:pageopacity="0"
     inkscape:pageshadow="2"
     inkscape:window-width="1366"
     inkscape:window-height="715"
     id="namedview17"
     showgrid="false"
     inkscape:zoom="2.6666667"
     inkscape:cx="75.000001"
     inkscape:cy="32.5"
     inkscape:window-x="0"
     inkscape:window-y="0"
     inkscape:window-maximized="1"
     inkscape:current-layer="SVGRoot" />
  <defs
     id="defs150" />
  <metadata
     id="metadata153">
    <rdf:RDF>
      <cc:Work
         rdf:about="">
        <dc:format>image/svg+xml</dc:format>
        <dc:type
           rdf:resource="http://purl.org/dc/dcmitype/StillImage" />
        <dc:title />
      </cc:Work>
    </rdf:RDF>
  </metadata>
  <g
     id="layer1"
     style="fill:#ffffff">
    <g
       style="fill:#ffffff"
       id="g129"
       transform="translate(0.29296725,-5.7167235)">
      <g
         id="layer1-6"
         transform="matrix(0.74705883,0,0,0.77111817,0.19668414,6.021374)"
         style="fill:#ffffff">
        <g
           id="g10"
           transform="matrix(0.28459834,0,0,-0.26865672,-43.133393,139.29316)"
           style="fill:#ffffff">
          <g
             id="g12"
             transform="matrix(0.1,0,0,0.1,3.3898309,0)"
             style="fill:#ffffff">
            <path
               d="m 8489.91,3283.99 c 0,0 80.82,529.79 -215.12,837.74 -258.15,268.61 -488.92,339.84 -958.84,360.85 -436.81,19.53 -639.23,1.41 -928.11,-0.04 -185.31,-0.93 -2268.03,-147.51 -3042.48,0 0,0 479.42,-221.27 1604.22,-212.05 933.8,7.65 1721.46,-3.76 1962.02,-7.85 44.04,-0.75 87.89,0.46 131.82,3.66 145.6,10.59 546.14,24.42 874.88,-106.45 409.8,-163.14 534.74,-599.27 571.61,-875.86"
               style="fill:#ffffff;fill-opacity:1;fill-rule:nonzero;stroke:none"
               id="path14" />
            <path
               d="m 8054.67,3376.18 c 0,-313.31 -253.99,-567.29 -567.3,-567.29 -313.3,0 -567.29,253.98 -567.29,567.29 0,313.31 253.99,567.3 567.29,567.3 313.31,0 567.3,-253.99 567.3,-567.3"
               style="fill:#ffffff;fill-opacity:1;fill-rule:nonzero;stroke:none"
               id="path16" />
            <path
               d="m 3411.57,3376.18 c 0,-313.31 -253.99,-567.29 -567.3,-567.29 -313.3,0 -567.29,253.98 -567.29,567.29 0,313.31 253.99,567.3 567.29,567.3 313.31,0 567.3,-253.99 567.3,-567.3"
               style="fill:#ffffff;fill-opacity:1;fill-rule:nonzero;stroke:none"
               id="path18" />
            <path
               d="m 7383.56,4104.53 c 0,0 -663.82,184.4 -875.86,-654.59 H 3828.67 c 0,0 -181.45,549.71 -612.39,590.06 0,0 8.99,-9 23.14,-25.71 213.31,-132.38 355.43,-368.6 355.43,-638.11 0,-31.23 -2.13,-61.96 -5.84,-92.19 h 3176.83 c 0,0 -71.05,748.14 617.72,820.54"
               style="fill:#ffffff;fill-opacity:1;fill-rule:nonzero;stroke:none"
               id="path20" />
            <path
               d="m 4507.03,4971.18 c 906.44,-42.14 1650.32,-368.79 1650.32,-368.79 0,0 -156.74,156.74 -654.6,350.35 -497.85,193.61 -1063.33,347.27 -1880.8,138.3 -773.03,-197.62 -626.59,-560.48 -1984.93,-495.12 -44.55,2.14 -73.69,-45.77 -51.25,-84.32 57.81,-99.3 116.02,-267.88 -1.36,-443.94 -184.39,-276.59 -9.22,-691.48 -9.22,-691.48 h 518.51 c 0,403.64 318.65,732.74 718.1,749.76 -126.4,21.58 -322.49,10.11 -609.67,-113.6 h -460.99 c 0,0 147.52,193.61 101.42,350.34 0,0 525.52,165.96 1032.6,-9.22 507.08,-175.17 1631.87,-285.8 2369.44,-212.05 0,0 -1770.16,82.98 -2304.9,460.98 0,0 510.29,417.93 1567.33,368.79"
               style="fill:#ffffff;fill-opacity:1;fill-rule:nonzero;stroke:none"
               id="path22" />
          </g>
        </g>
      </g>
      <text
         xml:space="preserve"
         style="font-style:normal;font-weight:normal;font-size:29.6487999px;line-height:1.25;font-family:sans-serif;letter-spacing:0px;word-spacing:0px;fill:#ffffff;fill-opacity:1;stroke:none;stroke-width:0.74122"
         x="6.0424385"
         y="73.285515"
         id="text117"
         transform="scale(1.0814202,0.92470994)"><tspan
           id="tspan115"
           x="6.0424385"
           y="73.285515"
           style="font-style:normal;font-variant:normal;font-weight:bold;font-stretch:normal;font-size:15.8126936px;font-family:'Fira Code';-inkscape-font-specification:'Fira Code Bold';stroke-width:0.74122;fill:#ffffff">&lt;CamposCars/&gt;</tspan></text>
    </g>
  </g>
</svg>
